<svg id="Layer_1" data-name="Layer 1" xmlns="http://www.w3.org/2000/svg" viewBox="0 0 204.43 214.4"><defs><style>.cls-1{fill-rule:evenodd;}</style></defs><title>K</title><path class="cls-1" d="M109.16,82.36c10.25-13.57,33.28-12.25,40.33,3.66,5.13,11.56,6.28,24.9,9.08,37.46.45,2,.25,4.13,1.84,6.82,2.15-3.33,4.39-6.61,6.45-10C179.63,99.4,193.93,80,216.14,67.93c12.32-6.68,24.85-8.86,38-2.6C265,70.51,271.91,81.84,270.8,93.48c-3.93-1.69-7.7-3.27-11.44-4.94-11-5-20.92-3.1-30,4.77-17,14.81-29.29,33.46-42.2,51.68-5.59,7.88-5.67,13.81-.89,22.19,14.26,25,28.56,50,51.74,67.95a98.51,98.51,0,0,0,25.37,14.26c11.43,4.26,17.36,1.13,24.31-8.76,1.64-2.33,4.45-3.84,6.72-5.72,1.89,3,4.74,5.7,5.42,8.91.9,4.2.52,8.82-.08,13.16-1.59,11.62-9.84,18.46-21.58,19-21.91,1-39.95-8.45-56.62-21.15C202,239.88,188,219.93,174,200.06c-4.78-6.8-9.75-13.47-15.87-21.9-1.06,4.09-1.87,6.55-2.34,9.09-3.5,18.52-6.19,37.25-10.73,55.51-2,8-6.77,15.81-12,22.38-7.37,9.33-21.64,11.13-31.51,5.62-7-3.93-7.33-5.71-1.91-11.47,4.53-4.8,9.47-9.29,13.54-14.44,10.7-13.55,14.86-29.62,16.84-46.4,3.16-26.65,2.82-53.31.17-80-1.25-12.6-5.84-23.18-16.36-30.75a27.61,27.61,0,0,1-3.77-3.49A7,7,0,0,1,109.16,82.36Z" transform="translate(-95.96 -61.62)"/></svg>